<svg width="90" height="90" viewBox="0 0 90 90" fill="none" xmlns="http://www.w3.org/2000/svg">
<g opacity="0.02">
<path d="M60.265 67.4773C46.5893 54.4582 45.0958 43.8073 45.0958 32.0271C45.0958 22.7459 39.4202 16.159 33.4197 15.0256C32.9416 14.9356 32.299 14.8498 31.5733 14.7795C25.6783 11.427 14.1752 14.3632 14.1752 14.3632C10.4754 8.33463 14.0922 4.95822 14.0922 4.95822C14.6969 3.36775 11.0871 1.85744 9.2252 3.57166C4.25551 8.13635 8.20004 18.7212 8.20004 18.7212C3.72676 23.8034 3.80129 31.8106 4.05723 35.1476C0.627388 45.5932 4.73926 52.9184 10.8621 59.6262C20.4133 70.0915 40.015 87.1873 62.2929 87.1873C68.7658 87.1873 75.4596 85.7459 82.2025 82.2795C97.6305 74.3538 73.533 80.1068 60.265 67.4773ZM62.2929 83.6717C39.9771 83.6717 20.7086 65.1992 13.4594 57.2567C7.44208 50.6642 4.19083 44.3332 7.88083 34.8579C9.79473 29.9445 11.1461 29.4987 12.0391 29.2034C13.2316 28.8096 16.0132 27.8913 16.0694 23.6754C16.8639 22.9596 20.1433 22.466 21.4033 22.2748C24.2594 21.8445 26.958 21.4381 27.775 18.7507C27.8243 18.5932 27.8763 18.3795 27.9086 18.1263L28.1618 18.1249C29.9505 18.1249 31.8335 18.3035 32.7686 18.4807C37.0408 19.2865 41.5802 24.3096 41.5802 32.0271C41.5802 43.8931 42.8233 55.7281 57.8407 70.024C64.495 76.3592 73.4388 78.5121 79.4449 79.7215C73.9549 82.3442 68.1921 83.6717 62.2929 83.6717Z" fill="black"/>
</g>
</svg>
