<svg width="81" height="82" viewBox="0 0 81 82" fill="none" xmlns="http://www.w3.org/2000/svg">
<g opacity="0.05">
<path d="M55.35 56.0333C66.825 44.4167 66.825 25.625 55.35 14.35L14.175 56.0333C25.3125 67.65 43.875 67.65 55.35 56.0333ZM54 23.9167C56.025 23.9167 57.375 25.2833 57.375 27.3333C57.375 29.3833 56.025 30.75 54 30.75C51.975 30.75 50.625 29.3833 50.625 27.3333C50.625 25.2833 51.975 23.9167 54 23.9167ZM54 37.5833C56.025 37.5833 57.375 38.95 57.375 41C57.375 43.05 56.025 44.4167 54 44.4167C51.975 44.4167 50.625 43.05 50.625 41C50.625 38.95 51.975 37.5833 54 37.5833ZM40.5 37.5833C42.525 37.5833 43.875 38.95 43.875 41C43.875 43.05 42.525 44.4167 40.5 44.4167C38.475 44.4167 37.125 43.05 37.125 41C37.125 38.95 38.475 37.5833 40.5 37.5833ZM40.5 51.25C42.525 51.25 43.875 52.6167 43.875 54.6667C43.875 56.7167 42.525 58.0833 40.5 58.0833C38.475 58.0833 37.125 56.7167 37.125 54.6667C37.125 52.6167 38.475 51.25 40.5 51.25ZM27 58.0833C24.975 58.0833 23.625 56.7167 23.625 54.6667C23.625 52.6167 24.975 51.25 27 51.25C29.025 51.25 30.375 52.6167 30.375 54.6667C30.375 56.7167 29.025 58.0833 27 58.0833ZM62.775 63.55C47.25 79.2667 22.275 79.2667 6.75 63.55L11.475 58.7667C24.3 71.75 44.8875 71.75 57.7125 58.7667C70.5375 45.7833 70.5375 24.9417 57.7125 11.9583L62.775 6.83333C77.9625 22.55 77.9625 47.8333 62.775 63.55Z" fill="black"/>
</g>
</svg>
