<svg width="115" height="102" viewBox="0 0 115 102" fill="none" xmlns="http://www.w3.org/2000/svg">
<g opacity="0.05" clip-path="url(#clip0_2_19549)">
<path d="M36.1451 67.8715C51.1005 82.3114 76.2757 83.4234 91.9882 70.3382L38.3248 18.5247C22.1724 31.1852 21.1897 53.4317 36.1451 67.8715ZM79.2432 68.1542C79.136 70.5811 77.2337 72.1181 74.4873 71.9968C71.7409 71.8755 69.9814 70.1767 70.0886 67.7498C70.1958 65.3229 72.0982 63.7858 74.8446 63.9072C77.591 64.0285 79.3504 65.7273 79.2432 68.1542ZM60.934 67.3454C60.8268 69.7723 58.9244 71.3094 56.1781 71.1881C53.4317 71.0667 51.6722 69.3679 51.7794 66.941C51.8866 64.5142 53.789 62.9771 56.5354 63.0984C59.2818 63.2197 61.0412 64.9185 60.934 67.3454ZM61.6487 51.1661C61.5415 53.593 59.6391 55.1301 56.8927 55.0088C54.1463 54.8875 52.3869 53.1886 52.4941 50.7618C52.6013 48.3349 54.5037 46.7978 57.2501 46.9191C59.9964 47.0404 61.7559 48.7392 61.6487 51.1661ZM43.3395 50.3574C43.2323 52.7843 41.3299 54.3213 38.5835 54.2C35.8371 54.0787 34.0777 52.3799 34.1849 49.953C34.2921 47.5261 36.1945 45.9891 38.9408 46.1104C41.6872 46.2317 43.4467 47.9305 43.3395 50.3574ZM34.8995 33.7737C35.0067 31.3468 36.9091 29.8098 39.6555 29.9311C42.4019 30.0524 44.1613 31.7512 44.0541 34.1781C43.9469 36.605 42.0446 38.142 39.2982 38.0207C36.5518 37.8994 34.7923 36.2006 34.8995 33.7737ZM25.682 76.3253C5.44824 56.7891 6.77037 26.8574 28.6478 9.18129L34.8059 15.1271C16.7332 29.7291 15.6434 54.4025 32.3582 70.5412C49.073 86.6798 76.9946 87.9131 95.0673 73.3111L101.665 79.6816C79.8056 96.9533 45.9336 95.4571 25.682 76.3253Z" fill="black"/>
</g>
<defs>
<clipPath id="clip0_2_19549">
<rect width="97.1704" height="109.962" fill="white" transform="translate(114.143 4.85248) rotate(92.5292)"/>
</clipPath>
</defs>
</svg>
