<svg width="171" height="171" viewBox="0 0 171 171" fill="none" xmlns="http://www.w3.org/2000/svg">
<g opacity="0.02" clip-path="url(#clip0_3_38)">
<path d="M122.24 16.8649L116.229 25.7141C116.229 25.7141 119.504 28.2631 121.07 31.8968C122.427 35.0871 123.411 38.8277 118.232 45.0852L113.557 49.7663C97.8193 36.3642 81.8254 35.7336 81.8254 35.7336H78.8223L77.1497 38.4055C77.1497 38.4055 63.5231 61.576 50.4309 85.5C43.8848 97.4593 37.4082 109.632 32.9088 119.235C30.6483 124.034 28.8742 128.213 27.7253 131.59C27.1642 133.278 26.7634 134.7 26.5604 136.266C26.3466 137.831 25.7642 139.98 28.3933 142.614C31.0278 145.243 33.1759 144.655 34.7417 144.447C36.3074 144.238 37.7288 143.843 39.4174 143.282C42.8 142.133 46.9735 140.359 51.7775 138.099C61.3642 133.594 73.5373 127.128 85.5019 120.576C109.405 107.463 132.596 93.8576 132.596 93.8576L135.268 92.185V89.0108C135.268 89.0108 134.558 73.2094 121.241 57.4507L123.074 55.4467C123.533 54.9872 123.95 54.6719 124.41 54.2765L125.746 53.1062C132.051 48.2647 138.02 48.4571 143.284 49.7717C146.935 50.6943 150.387 52.2771 153.469 54.4421L160.149 46.0952C160.149 46.0952 154.217 41.5263 145.785 39.4155C143.92 38.9771 142.022 38.6982 140.11 38.5819L150.963 27.7234L143.279 20.0444L132.094 31.2342C131.824 29.9737 131.432 28.7424 130.924 27.5577C127.915 20.5467 122.24 16.8702 122.24 16.8702V16.8649ZM84.4973 47.0891C88.0082 47.4258 98.0491 48.8846 110.051 60.9508C122.075 73.0597 123.555 83.0205 123.907 86.4993C123.031 87.023 118.462 89.7803 114.893 91.843C113 87.6447 110.646 83.6695 107.876 79.9906L99.3636 86.5046C103.12 91.5117 104.665 94.9584 105.541 97.1921C97.1719 101.933 88.7659 106.609 80.3239 111.219C79.8055 111.487 79.3459 111.781 78.8223 112.053C77.839 109.13 76.2359 105.603 73.3129 101.531L64.6293 107.709C67.2584 111.385 68.5516 114.41 69.1394 116.392C69.2409 116.729 69.2409 116.809 69.2997 117.06C61.3108 121.341 53.5891 125.45 47.2621 128.416C43.965 129.965 41.6244 130.82 39.2464 131.755C40.1869 129.378 41.0419 127.037 42.5863 123.74C46.904 114.538 53.2952 102.536 59.7825 90.6781C62.9139 84.9603 65.2972 80.6799 68.1348 75.6461C69.8448 77.1477 72.0571 79.173 74.4831 82.3258L82.8301 75.8118C80.1198 72.2145 76.9793 68.9627 73.4785 66.1289C79.0734 56.3178 83.5408 48.7403 84.5027 47.0891H84.4973Z" fill="black"/>
</g>
<defs>
<clipPath id="clip0_3_38">
<rect width="171" height="171" fill="white"/>
</clipPath>
</defs>
</svg>
