<svg width="26" height="33" viewBox="0 0 26 33" fill="none" xmlns="http://www.w3.org/2000/svg">
<path d="M2.93182 2.50965V27.6061H23.6932V2.50965H2.93182ZM2.93182 0H23.6932C24.9672 0 26 1.12361 26 2.50965V27.6061C26 28.9922 24.9672 30.1158 23.6932 30.1158H2.93182C1.6578 30.1158 0.625 28.9922 0.625 27.6061V2.50965C0.625 1.12361 1.6578 0 2.93182 0Z" fill="white"/>
<path d="M19.0536 6.22626C18.4165 6.22626 17.9001 5.66446 17.9001 4.97144C17.9001 4.27842 18.4165 3.71662 19.0536 3.71662L21.4206 3.71662C22.0576 3.71662 22.574 4.27842 22.574 4.97144C22.574 5.66446 22.0576 6.22626 21.4206 6.22626H19.0536Z" fill="white"/>
<path d="M15.6306 6.27412C14.9936 6.27412 14.4772 5.71232 14.4772 5.0193C14.4772 4.32628 14.9936 3.76447 15.6306 3.76447C16.2676 3.76447 16.784 4.32628 16.784 5.0193C16.784 5.71232 16.2676 6.27412 15.6306 6.27412ZM12.1838 6.27412C11.5468 6.27412 11.0304 5.71232 11.0304 5.0193C11.0304 4.32628 11.5468 3.76447 12.1838 3.76447C12.8208 3.76447 13.3372 4.32628 13.3372 5.0193C13.3372 5.71232 12.8208 6.27412 12.1838 6.27412ZM4.09122 28.8501C4.09122 28.1571 4.60762 27.5953 5.24463 27.5953C5.88164 27.5953 6.39804 28.1571 6.39804 28.8501L6.39202 31.3666C6.39202 32.0596 5.87562 32.6214 5.23861 32.6214C4.6016 32.6214 4.08521 32.0596 4.08521 31.3666L4.09122 28.8501ZM20.2377 28.8594C20.2377 28.1664 20.7541 27.6046 21.3911 27.6046C22.0281 27.6046 22.5445 28.1664 22.5445 28.8594V31.3666C22.5445 32.0596 22.0281 32.6214 21.3911 32.6214C20.7541 32.6214 20.2377 32.0596 20.2377 31.3666V28.8594ZM13.3125 26.3513C9.49042 26.3513 6.39202 22.9805 6.39202 18.8224C6.39202 14.6642 9.49042 11.2934 13.3125 11.2934C17.1345 11.2934 20.2329 14.6642 20.2329 18.8224C20.2329 22.9805 17.1345 26.3513 13.3125 26.3513ZM13.3125 23.8417C15.8605 23.8417 17.9261 21.5944 17.9261 18.8224C17.9261 16.0503 15.8605 13.8031 13.3125 13.8031C10.7644 13.8031 8.69884 16.0503 8.69884 18.8224C8.69884 21.5944 10.7644 23.8417 13.3125 23.8417Z" fill="white"/>
<path d="M13.3125 15.0579C13.9495 15.0579 14.4659 15.6197 14.4659 16.3127C14.4659 17.0057 13.9495 17.5675 13.3125 17.5675C12.6755 17.5675 12.1591 18.1293 12.1591 18.8224C12.1591 19.5154 11.6427 20.0772 11.0057 20.0772C10.3687 20.0772 9.85229 19.5154 9.85229 18.8224C9.85229 16.7433 11.4015 15.0579 13.3125 15.0579Z" fill="white"/>
<path d="M1.77832 10.0637V7.55404H24.8465V10.0637H1.77832Z" fill="white"/>
</svg>
