<svg width="39" height="33" viewBox="0 0 39 33" fill="none" xmlns="http://www.w3.org/2000/svg">
<path d="M37.8179 5.40047L37.8097 5.39485L37.801 5.39008L37.184 5.05189L37.1841 5.05183L37.1794 5.04944C31.7836 2.2729 25.7063 0.8 19.5056 0.8C13.3048 0.8 7.22695 2.27293 1.8303 5.10656L1.83028 5.10653L1.82713 5.10826L1.21021 5.44644C1.01825 5.55167 0.885922 5.70271 0.82967 5.88773C0.774175 6.07026 0.800251 6.2609 0.876369 6.43476L0.876043 6.4349L0.881469 6.44552L5.19993 14.9001L5.20714 14.9142L5.21648 14.927C5.37402 15.1429 5.61692 15.2909 5.93327 15.2909H5.9359C5.96651 15.2909 6.02536 15.2909 6.08677 15.2816C6.13598 15.2741 6.21243 15.2572 6.28073 15.2095C6.73212 15.027 7.14332 14.8819 7.58404 14.7424V29.1818C7.58404 29.4007 7.66655 29.6382 7.91315 29.7951C7.95078 29.8255 8.0213 29.8749 8.11898 29.9362C8.23966 30.0119 8.41206 30.1122 8.63974 30.2283C9.0952 30.4607 9.77258 30.7573 10.7006 31.0494C12.557 31.6338 15.4153 32.2 19.5056 32.2C23.5959 32.2 26.4542 31.6338 28.3105 31.0494C29.2386 30.7573 29.916 30.4607 30.3714 30.2283C30.5991 30.1122 30.7715 30.0119 30.8922 29.9362C31.0076 29.8638 31.0852 29.8079 31.1153 29.7804C31.25 29.6572 31.4271 29.4378 31.4271 29.1818V14.7446C31.6814 14.8291 31.931 14.921 32.1759 15.0113C32.3654 15.081 32.552 15.1498 32.7359 15.2133C32.8028 15.2581 32.8765 15.2743 32.9244 15.2816C32.9858 15.2909 33.0447 15.2909 33.0753 15.2909H33.0779C33.2328 15.2909 33.3778 15.2552 33.5058 15.1772C33.6334 15.0994 33.7332 14.9865 33.8086 14.8487L33.8086 14.8488L33.8112 14.8437L38.1286 6.39139C38.2229 6.2167 38.2149 6.01556 38.156 5.84535C38.0964 5.67286 37.9782 5.51033 37.8179 5.40047ZM6.34134 13.5497L2.68813 6.38989C6.10911 4.58862 9.88237 3.37549 13.7788 2.75173C14.1397 5.35769 16.5319 7.4 19.5056 7.4C22.479 7.4 24.8738 5.41071 25.2329 2.75182C29.1284 3.37548 32.9024 4.58832 36.3833 6.38967L32.6709 13.5501C32.4718 13.4835 32.2657 13.417 32.0609 13.351L32.0597 13.3506C31.8449 13.2813 31.6316 13.2125 31.4271 13.1439V10.0182V9.81818H31.2271H29.9933H29.7933V10.0182V28.7781C28.8172 29.2748 25.6992 30.6727 19.5056 30.6727C13.312 30.6727 10.194 29.2748 9.21789 28.7781V10.0182V9.81818H9.01789H7.78404H7.58404V10.0182V13.1439C7.37956 13.2125 7.16625 13.2813 6.95151 13.3506L6.95034 13.3509C6.74588 13.4169 6.54013 13.4832 6.34134 13.5497ZM15.4098 2.53572C16.7654 2.42871 18.1641 2.32727 19.5056 2.32727C20.849 2.32727 22.2498 2.429 23.6072 2.53617C23.3871 4.40726 21.6263 5.87273 19.5056 5.87273C17.3917 5.87273 15.6818 4.41302 15.4098 2.53572Z" fill="white" stroke="white" stroke-width="0.4"/>
</svg>
